<?xml version="1.0" encoding="UTF-8" standalone="no"?>
<!DOCTYPE svg PUBLIC "-//W3C//DTD SVG 1.1//EN" "http://www.w3.org/Graphics/SVG/1.1/DTD/svg11.dtd">
<svg width="100%" height="100%" viewBox="0 0 50 51" version="1.1" xmlns="http://www.w3.org/2000/svg" xmlns:xlink="http://www.w3.org/1999/xlink" xml:space="preserve" xmlns:serif="http://www.serif.com/" style="fill-rule:evenodd;clip-rule:evenodd;stroke-linejoin:round;stroke-miterlimit:2;">
    <g transform="matrix(1.01012,0,0,1.01012,-0.252828,-0.258315)">
        <g>
            <path d="M42.343,50.787L7.615,50.787C3.515,50.787 0.209,47.372 0.209,43.233L0.209,7.81C0.209,3.628 3.556,0.256 7.615,0.256L42.343,0.256C46.444,0.256 49.749,3.67 49.749,7.81L49.749,43.233C49.791,47.372 46.444,50.787 42.343,50.787Z" style="fill:rgb(42,43,47);"/>
            <path d="M25.115,13.187C25.115,13.187 33.466,15.557 33.56,18.471C34.219,35.667 24.989,37.749 24.989,37.749C24.989,37.749 15.759,35.667 16.419,18.471C16.544,15.557 25.115,13.187 25.115,13.187ZM25.115,11.586C24.989,11.586 24.832,11.618 24.707,11.65C24.613,11.682 22.415,12.291 20.186,13.284C18.805,13.892 17.706,14.5 16.89,15.173C15.571,16.198 14.912,17.286 14.849,18.471C14.692,22.57 15.069,26.189 15.979,29.263C16.733,31.792 17.831,33.938 19.276,35.667C21.787,38.677 24.393,39.318 24.676,39.382C24.801,39.414 24.895,39.414 25.021,39.414C25.146,39.414 25.241,39.382 25.366,39.382C25.649,39.318 28.254,38.645 30.766,35.667C32.21,33.938 33.309,31.792 34.062,29.263C34.973,26.189 35.35,22.57 35.193,18.471C35.13,16.55 33.435,14.885 29.981,13.316C27.784,12.323 25.649,11.714 25.555,11.682C25.398,11.618 25.272,11.586 25.115,11.586Z" style="fill:rgb(244,244,244);fill-rule:nonzero;"/>
            <path d="M31.519,21.033C31.519,21.033 26.999,24.267 26.277,25.58C25.617,26.861 25.021,32.497 25.021,32.497C25.021,32.497 24.519,26.797 23.765,25.58C23.074,24.459 18.522,21.033 18.522,21.033C18.522,21.033 23.326,23.338 25.021,23.338C26.685,23.338 31.519,21.033 31.519,21.033Z" style="fill:rgb(244,244,244);"/>
        </g>
    </g>
</svg>
